<svg xmlns="http://www.w3.org/2000/svg" width="395" height="710" viewBox="0 0 395 710">
  <g id="グループ_125" data-name="グループ 125" transform="translate(12 -1773)">
    <g id="グループ_124" data-name="グループ 124">
      <g id="グループ_123" data-name="グループ 123">
        <g id="グループ_122" data-name="グループ 122">
          <g id="グループ_121" data-name="グループ 121">
            <rect id="長方形_132" data-name="長方形 132" width="395" height="710" transform="translate(-12 1773)" fill="#f6d967" opacity="0.503"/>
            <text id="美男美女SNAP2021は_初のステージ制を導入_" data-name="美男美女SNAP2021は
初のステージ制を導入！" transform="translate(28 1801.987)" fill="#250b0d" font-size="23" font-family="YuGo-Bold, YuGothic" font-weight="700"><tspan x="0" y="20">美男美女SNAP2021は</tspan><tspan x="0" y="60">初のステージ制を導入！</tspan></text>
            <rect id="長方形_150" data-name="長方形 150" width="322" height="137" transform="translate(27 1903)" fill="#fff"/>
            <rect id="長方形_154" data-name="長方形 154" width="270" height="26" transform="translate(60 1944)" fill="#250b0d"/>
            <text id="_1st_STAGE" data-name="1st STAGE" transform="translate(37 1911.491)" fill="#250b0d" font-size="25" font-family="YuGo-Bold, YuGothic" font-weight="700" letter-spacing="0.05em"><tspan x="0" y="22">1st STAGE</tspan></text>
            <text id="_12_01_Wed._20:00_12_17_Fri._23:59" data-name="12/01(Wed.)20:00〜12/17(Fri.)23:59" transform="translate(70.616 1950.763)" fill="#fff" font-size="12" font-family="YuGo-Bold, YuGothic" font-weight="700" letter-spacing="0.1em"><tspan x="0" y="11">12/01(Wed.)20:00〜12/17(Fri.)23:59</tspan></text>
            <text id="男女各12人からFINAL_STAGEへ進む_メンバーを4人選出する期間です_" data-name="男女各12人からFINAL STAGEへ進む
メンバーを4人選出する期間です。
" transform="translate(80.459 1982.108)" fill="#250b0d" font-size="13" font-family="YuGo-Bold, YuGothic" font-weight="700" letter-spacing="0.1em"><tspan x="0" y="11">男女各12人からFINAL STAGEへ進む</tspan><tspan x="0" y="34">メンバーを4人選出する期間です。</tspan></text>
            <g id="グループ_92" data-name="グループ 92">
              <g id="楕円形_46" data-name="楕円形 46" transform="translate(158.45 2033)" fill="#c72430" stroke="#250b0d" stroke-width="1">
                <circle cx="7.148" cy="7.148" r="7.148" stroke="none"/>
                <circle cx="7.148" cy="7.148" r="6.648" fill="none"/>
              </g>
              <g id="楕円形_47" data-name="楕円形 47" transform="translate(331.42 2033)" fill="#fff" stroke="#250b0d" stroke-width="1">
                <ellipse cx="6.79" cy="7.148" rx="6.79" ry="7.148" stroke="none"/>
                <ellipse cx="6.79" cy="7.148" rx="6.29" ry="6.648" fill="none"/>
              </g>
              <g id="楕円形_48" data-name="楕円形 48" transform="translate(312.121 2033)" fill="#fff" stroke="#250b0d" stroke-width="1">
                <circle cx="7.148" cy="7.148" r="7.148" stroke="none"/>
                <circle cx="7.148" cy="7.148" r="6.648" fill="none"/>
              </g>
              <g id="楕円形_49" data-name="楕円形 49" transform="translate(292.823 2033)" fill="#fff" stroke="#250b0d" stroke-width="1">
                <circle cx="7.148" cy="7.148" r="7.148" stroke="none"/>
                <circle cx="7.148" cy="7.148" r="6.648" fill="none"/>
              </g>
              <g id="楕円形_50" data-name="楕円形 50" transform="translate(254.227 2033)" fill="#fff" stroke="#250b0d" stroke-width="1">
                <circle cx="7.148" cy="7.148" r="7.148" stroke="none"/>
                <circle cx="7.148" cy="7.148" r="6.648" fill="none"/>
              </g>
              <g id="楕円形_51" data-name="楕円形 51" transform="translate(234.928 2033)" fill="#fff" stroke="#250b0d" stroke-width="1">
                <circle cx="7.148" cy="7.148" r="7.148" stroke="none"/>
                <circle cx="7.148" cy="7.148" r="6.648" fill="none"/>
              </g>
              <g id="楕円形_52" data-name="楕円形 52" transform="translate(216.345 2033)" fill="#fff" stroke="#250b0d" stroke-width="1">
                <ellipse cx="6.79" cy="7.148" rx="6.79" ry="7.148" stroke="none"/>
                <ellipse cx="6.79" cy="7.148" rx="6.29" ry="6.648" fill="none"/>
              </g>
              <g id="楕円形_53" data-name="楕円形 53" transform="translate(177.748 2033)" fill="#c72430" stroke="#250b0d" stroke-width="1">
                <circle cx="7.148" cy="7.148" r="7.148" stroke="none"/>
                <circle cx="7.148" cy="7.148" r="6.648" fill="none"/>
              </g>
              <g id="楕円形_54" data-name="楕円形 54" transform="translate(273.525 2033)" fill="#fff" stroke="#250b0d" stroke-width="1">
                <circle cx="7.148" cy="7.148" r="7.148" stroke="none"/>
                <circle cx="7.148" cy="7.148" r="6.648" fill="none"/>
              </g>
              <g id="楕円形_55" data-name="楕円形 55" transform="translate(139.152 2033)" fill="#c72430" stroke="#250b0d" stroke-width="1">
                <circle cx="7.148" cy="7.148" r="7.148" stroke="none"/>
                <circle cx="7.148" cy="7.148" r="6.648" fill="none"/>
              </g>
              <g id="楕円形_56" data-name="楕円形 56" transform="translate(119.853 2033)" fill="#c72430" stroke="#250b0d" stroke-width="1">
                <circle cx="7.148" cy="7.148" r="7.148" stroke="none"/>
                <circle cx="7.148" cy="7.148" r="6.648" fill="none"/>
              </g>
              <g id="楕円形_57" data-name="楕円形 57" transform="translate(197.046 2033)" fill="#fff" stroke="#250b0d" stroke-width="1">
                <circle cx="7.148" cy="7.148" r="7.148" stroke="none"/>
                <circle cx="7.148" cy="7.148" r="6.648" fill="none"/>
              </g>
            </g>
            <g id="グループ_90" data-name="グループ 90" transform="translate(36.059 1995.552) rotate(90)">
              <g id="グループ_45" data-name="グループ 45" transform="translate(0 0)">
                <path id="パス_38" data-name="パス 38" d="M0,0H74.9" transform="translate(0 0)" fill="none" stroke="#250b0d" stroke-width="2"/>
                <path id="パス_37" data-name="パス 37" d="M0,5.495,9.366,0" transform="translate(65.107 0.358)" fill="none" stroke="#250b0d" stroke-width="2"/>
              </g>
              <path id="パス_38-2" data-name="パス 38" d="M0,0H74.9" transform="translate(0 0)" fill="none" stroke="#250b0d" stroke-width="2"/>
              <path id="パス_37-2" data-name="パス 37" d="M0,5.495,9.366,0" transform="translate(65.107 0.358)" fill="none" stroke="#250b0d" stroke-width="2"/>
            </g>
            <rect id="長方形_151" data-name="長方形 151" width="322" height="155" transform="translate(27 2084)" fill="#fff"/>
            <text id="RETURN_STAGE" data-name="RETURN STAGE" transform="translate(37 2094.482)" fill="#250b0d" font-size="25" font-family="YuGo-Bold, YuGothic" font-weight="700" letter-spacing="0.05em"><tspan x="0" y="22">RETURN STAGE</tspan></text>
            <text id="_1st_STAGEで惜しくもFINAL_STAGEへ_進めなかった男女各8人からFINAL_STAGEへ_進む各2人を決定します_" data-name="1st STAGEで惜しくもFINAL STAGEへ
進めなかった男女各8人からFINAL STAGEへ
進む各2人を決定します。
" transform="translate(76.459 2165.108)" fill="#250b0d" font-size="11" font-family="YuGo-Bold, YuGothic" font-weight="700" letter-spacing="0.1em"><tspan x="0" y="10">1st STAGEで惜しくもFINAL STAGEへ</tspan><tspan x="0" y="29">進めなかった男女各8人からFINAL STAGEへ</tspan><tspan x="0" y="48">進む各2人を決定します。</tspan></text>
            <g id="グループ_91" data-name="グループ 91" transform="translate(36.059 2194.73) rotate(90)">
              <g id="グループ_45-2" data-name="グループ 45" transform="translate(0 0)">
                <path id="パス_38-3" data-name="パス 38" d="M0,0H74.9" transform="translate(0 0)" fill="none" stroke="#250b0d" stroke-width="2"/>
                <path id="パス_37-3" data-name="パス 37" d="M0,5.495,9.366,0" transform="translate(65.107 0.358)" fill="none" stroke="#250b0d" stroke-width="2"/>
              </g>
              <path id="パス_38-4" data-name="パス 38" d="M0,0H74.9" transform="translate(0 0)" fill="none" stroke="#250b0d" stroke-width="2"/>
              <path id="パス_37-4" data-name="パス 37" d="M0,5.495,9.366,0" transform="translate(65.107 0.358)" fill="none" stroke="#250b0d" stroke-width="2"/>
            </g>
            <rect id="長方形_152" data-name="長方形 152" width="322" height="137" transform="translate(27 2284.664)" fill="#fff"/>
            <text id="FINAL_STAGE" data-name="FINAL STAGE" transform="translate(40.206 2295.146)" fill="#250b0d" font-size="25" font-family="YuGo-Bold, YuGothic" font-weight="700" letter-spacing="0.05em"><tspan x="0" y="22">FINAL STAGE</tspan></text>
            <text id="_1st_STAGE_RETURN_STAGEから進んだ_男女各6人から上位各3位を決定します_" data-name="1st STAGE、RETURN STAGEから進んだ
男女各6人から上位各3位を決定します。
" transform="translate(54.206 2369.518)" fill="#250b0d" font-size="13" font-family="YuGo-Bold, YuGothic" font-weight="700" letter-spacing="0.1em"><tspan x="0" y="11">1st STAGE、RETURN STAGEから進んだ</tspan><tspan x="0" y="34">男女各6人から上位各3位を決定します。</tspan></text>
            <g id="グループ_94" data-name="グループ 94" transform="translate(-13.452 0.532)">
              <g id="楕円形_63" data-name="楕円形 63" transform="translate(286.104 2416.504)" fill="#a55c25" stroke="#250b0d" stroke-width="1">
                <ellipse cx="7.449" cy="7.449" rx="7.449" ry="7.449" stroke="none"/>
                <ellipse cx="7.449" cy="7.449" rx="6.949" ry="6.949" fill="none"/>
              </g>
              <g id="楕円形_64" data-name="楕円形 64" transform="translate(306.217 2416.504)" fill="#fff" stroke="#250b0d" stroke-width="1">
                <ellipse cx="7.449" cy="7.449" rx="7.449" ry="7.449" stroke="none"/>
                <ellipse cx="7.449" cy="7.449" rx="6.949" ry="6.949" fill="none"/>
              </g>
              <g id="楕円形_65" data-name="楕円形 65" transform="translate(265.991 2416.504)" fill="#b9b9b9" stroke="#250b0d" stroke-width="1">
                <ellipse cx="7.449" cy="7.449" rx="7.449" ry="7.449" stroke="none"/>
                <ellipse cx="7.449" cy="7.449" rx="6.949" ry="6.949" fill="none"/>
              </g>
              <g id="楕円形_66" data-name="楕円形 66" transform="translate(245.878 2416.504)" fill="#b59836" stroke="#250b0d" stroke-width="1">
                <ellipse cx="7.449" cy="7.449" rx="7.449" ry="7.449" stroke="none"/>
                <ellipse cx="7.449" cy="7.449" rx="6.949" ry="6.949" fill="none"/>
              </g>
              <g id="楕円形_67" data-name="楕円形 67" transform="translate(326.33 2416.504)" fill="#fff" stroke="#250b0d" stroke-width="1">
                <ellipse cx="7.449" cy="7.449" rx="7.449" ry="7.449" stroke="none"/>
                <ellipse cx="7.449" cy="7.449" rx="6.949" ry="6.949" fill="none"/>
              </g>
              <text id="_1" data-name="1" transform="translate(249.712 2436.245)" fill="#250b0d" font-size="12" font-family="YuGo-Bold, YuGothic" font-weight="700"><tspan x="0" y="11">1</tspan></text>
              <text id="_2" data-name="2" transform="translate(269.825 2436.245)" fill="#250b0d" font-size="12" font-family="YuGo-Bold, YuGothic" font-weight="700"><tspan x="0" y="11">2</tspan></text>
              <text id="_3" data-name="3" transform="translate(289.938 2436.245)" fill="#250b0d" font-size="12" font-family="YuGo-Bold, YuGothic" font-weight="700"><tspan x="0" y="11">3</tspan></text>
              <g id="楕円形_83" data-name="楕円形 83" transform="translate(346.443 2416.504)" fill="#fff" stroke="#250b0d" stroke-width="1">
                <ellipse cx="7.449" cy="7.449" rx="7.449" ry="7.449" stroke="none"/>
                <ellipse cx="7.449" cy="7.449" rx="6.949" ry="6.949" fill="none"/>
              </g>
            </g>
            <g id="グループ_93" data-name="グループ 93">
              <g id="楕円形_68" data-name="楕円形 68" transform="translate(162.45 2233.018)" fill="#c72430" stroke="#250b0d" stroke-width="1">
                <circle cx="7.148" cy="7.148" r="7.148" stroke="none"/>
                <circle cx="7.148" cy="7.148" r="6.648" fill="none"/>
              </g>
              <g id="楕円形_69" data-name="楕円形 69" transform="translate(335.42 2233.018)" fill="#fff" stroke="#250b0d" stroke-width="1">
                <ellipse cx="6.79" cy="7.148" rx="6.79" ry="7.148" stroke="none"/>
                <ellipse cx="6.79" cy="7.148" rx="6.29" ry="6.648" fill="none"/>
              </g>
              <g id="楕円形_70" data-name="楕円形 70" transform="translate(316.121 2233.018)" fill="#fff" stroke="#250b0d" stroke-width="1">
                <circle cx="7.148" cy="7.148" r="7.148" stroke="none"/>
                <circle cx="7.148" cy="7.148" r="6.648" fill="none"/>
              </g>
              <g id="楕円形_71" data-name="楕円形 71" transform="translate(296.823 2233.018)" fill="#fff" stroke="#250b0d" stroke-width="1">
                <circle cx="7.148" cy="7.148" r="7.148" stroke="none"/>
                <circle cx="7.148" cy="7.148" r="6.648" fill="none"/>
              </g>
              <g id="楕円形_72" data-name="楕円形 72" transform="translate(258.227 2233.018)" fill="#fff" stroke="#250b0d" stroke-width="1">
                <circle cx="7.148" cy="7.148" r="7.148" stroke="none"/>
                <circle cx="7.148" cy="7.148" r="6.648" fill="none"/>
              </g>
              <g id="楕円形_73" data-name="楕円形 73" transform="translate(238.928 2233.018)" fill="#fff" stroke="#250b0d" stroke-width="1">
                <circle cx="7.148" cy="7.148" r="7.148" stroke="none"/>
                <circle cx="7.148" cy="7.148" r="6.648" fill="none"/>
              </g>
              <g id="楕円形_74" data-name="楕円形 74" transform="translate(220.345 2233.018)" fill="#250b0d" stroke="#250b0d" stroke-width="1">
                <ellipse cx="6.79" cy="7.148" rx="6.79" ry="7.148" stroke="none"/>
                <ellipse cx="6.79" cy="7.148" rx="6.29" ry="6.648" fill="none"/>
              </g>
              <g id="楕円形_75" data-name="楕円形 75" transform="translate(181.748 2233.018)" fill="#c72430" stroke="#250b0d" stroke-width="1">
                <circle cx="7.148" cy="7.148" r="7.148" stroke="none"/>
                <circle cx="7.148" cy="7.148" r="6.648" fill="none"/>
              </g>
              <g id="楕円形_76" data-name="楕円形 76" transform="translate(277.525 2233.018)" fill="#fff" stroke="#250b0d" stroke-width="1">
                <circle cx="7.148" cy="7.148" r="7.148" stroke="none"/>
                <circle cx="7.148" cy="7.148" r="6.648" fill="none"/>
              </g>
              <g id="楕円形_77" data-name="楕円形 77" transform="translate(143.152 2233.018)" fill="#c72430" stroke="#250b0d" stroke-width="1">
                <circle cx="7.148" cy="7.148" r="7.148" stroke="none"/>
                <circle cx="7.148" cy="7.148" r="6.648" fill="none"/>
              </g>
              <g id="楕円形_78" data-name="楕円形 78" transform="translate(123.853 2233.018)" fill="#c72430" stroke="#250b0d" stroke-width="1">
                <circle cx="7.148" cy="7.148" r="7.148" stroke="none"/>
                <circle cx="7.148" cy="7.148" r="6.648" fill="none"/>
              </g>
              <g id="楕円形_79" data-name="楕円形 79" transform="translate(201.046 2233.018)" fill="#250b0d" stroke="#250b0d" stroke-width="1">
                <circle cx="7.148" cy="7.148" r="7.148" stroke="none"/>
                <circle cx="7.148" cy="7.148" r="6.648" fill="none"/>
              </g>
            </g>
            <rect id="長方形_155" data-name="長方形 155" width="270" height="26" transform="translate(60 2127)" fill="#250b0d"/>
            <text id="_12_18_Sat._20:00_12_24_Fri._23:59" data-name="12/18(Sat.)20:00 ～ 12/24(Fri.)23:59" transform="translate(70.616 2133.763)" fill="#fff" font-size="12" font-family="YuGo-Bold, YuGothic" font-weight="700" letter-spacing="0.1em"><tspan x="0" y="11">12/18(Sat.)20:00 ～ 12/24(Fri.)23:59</tspan></text>
            <rect id="長方形_156" data-name="長方形 156" width="270" height="26" transform="translate(60 2328)" fill="#250b0d"/>
            <text id="_12_25_Sat._20:00_12_31_Fri._23:59" data-name="12/25(Sat.)20:00 ～ 12/31(Fri.)23:59" transform="translate(70.616 2334.763)" fill="#fff" font-size="12" font-family="YuGo-Bold, YuGothic" font-weight="700" letter-spacing="0.1em"><tspan x="0" y="11">12/25(Sat.)20:00 ～ 12/31(Fri.)23:59</tspan></text>
            <g id="楕円形_80" data-name="楕円形 80" transform="translate(197.046 2033)" fill="#fff" stroke="#250b0d" stroke-width="1">
              <circle cx="7.148" cy="7.148" r="7.148" stroke="none"/>
              <circle cx="7.148" cy="7.148" r="6.648" fill="none"/>
            </g>
          </g>
        </g>
      </g>
    </g>
  </g>
</svg>
