<svg xmlns="http://www.w3.org/2000/svg" width="320" height="464" viewBox="0 0 320 464">
  <g id="グループ_149" data-name="グループ 149" transform="translate(-28 -281)">
    <g id="グループ_148" data-name="グループ 148">
      <rect id="長方形_178" data-name="長方形 178" width="153" height="7" transform="translate(52 440)" fill="#f6d967"/>
      <rect id="長方形_179" data-name="長方形 179" width="121" height="7" transform="translate(217 610)" fill="#f6d967"/>
      <rect id="長方形_180" data-name="長方形 180" width="10" height="7" transform="translate(28 627)" fill="#f6d967"/>
      <text id="_鹿大生の美男美女が見たい_そういう声を機に始めた美男美女SNAP_毎年少しずつ形を変えながら鹿児島大学の美男美女を紹介してきました_2016年に始まった美男美女SNAPも今年で6年目を迎えます_わたしたちKADAI_INFOは_鹿児島大学をもっと面白くすることを目的に_おもしろい鹿大生を輩出する_をミッションとして活動してきました_おもしろいってなんだ_人によって違うかもしれない_でも外交的だろうと_内向的だろうとメインカルチャーだろうと_サブカルチャーだろうと計画的だろうと_衝" data-name="「鹿大生の美男美女が見たい」
そういう声を機に始めた美男美女SNAP。

毎年少しずつ形を変えながら鹿児島大学の美男美女を紹介してきました。

2016年に始まった美男美女SNAPも今年で6年目を迎えます。

わたしたちKADAI INFOは、鹿児島大学をもっと面白くすることを目的に、「おもしろい鹿大生を輩出する。」をミッションとして活動してきました。

 おもしろいってなんだ。
人によって違うかもしれない。でも外交的だろうと、内向的だろうとメインカルチャーだろうと、サブカルチャーだろうと計画的だろうと、衝" transform="translate(28 281)" fill="#250b0d" font-size="10" font-family="YuGo-Medium, YuGothic" font-weight="500"><tspan x="0" y="9">「鹿大生の美男美女が見たい」</tspan><tspan x="0" y="26">そういう声を機に始めた美男美女SNAP。</tspan><tspan x="0" y="43"></tspan><tspan x="0" y="60">毎年少しずつ形を変えながら鹿児島大学の美男美女を紹介してきまし</tspan><tspan x="0" y="77">た。</tspan><tspan x="0" y="94"></tspan><tspan x="0" y="111">2016年に始まった美男美女SNAPも今年で6年目を迎えます。</tspan><tspan x="0" y="128"></tspan><tspan x="0" y="145">わたしたちKADAI INFOは、鹿児島大学をもっと面白くすることを目的</tspan><tspan x="0" y="162">に、「おもしろい鹿大生を輩出する。」をミッションとして活動してき</tspan><tspan x="0" y="179">ました。</tspan><tspan x="0" y="196"></tspan><tspan x="0" y="213" xml:space="preserve"> おもしろいってなんだ。</tspan><tspan x="0" y="230">人によって違うかもしれない。でも外交的だろうと、内向的だろうとメ</tspan><tspan x="0" y="247">インカルチャーだろうと、サブカルチャーだろうと計画的だろうと、衝</tspan><tspan x="0" y="264">動的だろうと、自分の個性を最大限に輝かせている人は、</tspan><tspan x="0" y="281"></tspan><tspan x="0" y="298">きっとおもしろい＿＿＿＿。</tspan><tspan x="0" y="315"></tspan><tspan x="0" y="332" xml:space="preserve"> そして、”美しい”もきっと個性のひとつ、”美しい”もきっとおもしろ</tspan><tspan x="0" y="349">い。</tspan><tspan x="0" y="366"></tspan><tspan x="0" y="383">そのようなおもしろい鹿大生を輩出したい。</tspan><tspan x="0" y="400">そして頑張っている鹿大生を応援したい。</tspan><tspan x="0" y="417"></tspan><tspan x="0" y="434">そんな想いで今年も「美男美女SNAP2021」を開催します。</tspan><tspan x="0" y="451"></tspan></text>
    </g>
  </g>
</svg>
