<svg xmlns="http://www.w3.org/2000/svg" width="31.289" height="21.644" viewBox="0 0 31.289 21.644">
  <g id="グループ_44" data-name="グループ 44" transform="translate(0)">
    <path id="パス_6" data-name="パス 6" d="M267.26,581.24l-6.419-.117a33.485,33.485,0,0,1-6.2-.383c-3.1-.633-3.319-3.738-3.549-6.343a44.5,44.5,0,0,1,.4-11.02,3.768,3.768,0,0,1,3.718-3.385,205.387,205.387,0,0,1,20.82-.2,15.016,15.016,0,0,1,2.186.26c3.554.623,3.641,4.142,3.872,7.1a40.265,40.265,0,0,1-.306,8.972c-.352,2.461-1.026,4.525-3.871,4.724-3.565.26-7.047.47-10.622.4C267.291,581.24,267.27,581.24,267.26,581.24Zm-3.774-6.23c2.686-1.542,5.321-3.059,7.992-4.591-2.691-1.542-5.321-3.059-7.992-4.591Z" transform="translate(-250.923 -559.625)" fill="#fff"/>
  </g>
</svg>
